<?xml version="1.0" encoding="utf-8"?>
<!-- Generator: Adobe Illustrator 18.0.0, SVG Export Plug-In . SVG Version: 6.00 Build 0)  -->
<!DOCTYPE svg PUBLIC "-//W3C//DTD SVG 1.1//EN" "http://www.w3.org/Graphics/SVG/1.1/DTD/svg11.dtd">
<svg version="1.1" id="Layer_1" xmlns="http://www.w3.org/2000/svg" xmlns:xlink="http://www.w3.org/1999/xlink" x="0px" y="0px"
	 viewBox="0 0 1190.6 841.9" enable-background="new 0 0 1190.6 841.9" xml:space="preserve">
<g>
	<path fill="#FFFFFF" d="M976.7,801.5l-220.2-58.9c-52.6,26.9-111.1,41.3-170.5,41.3c-205,0-371.7-166.7-371.7-371.7
		C213.9,207.1,380.6,40.4,586,40.4c205,0,371.7,166.7,371.7,371.7c0,58.5-13.9,116.2-40.4,168.4L976.7,801.5z M752.7,709.3
		l179.7,48.4l-48.4-181l2.9-5.5c26.1-49.7,39.6-103.1,39.6-159.1c0-187.7-152.8-340.5-340.5-340.5S245.5,224.4,245.5,412.1
		S398.3,752.6,586,752.6c56.4,0,112-13.9,161.2-40.8L752.7,709.3z"/>
</g>
</svg>
