<?xml version="1.0" encoding="utf-8"?>
<!-- Generator: Adobe Illustrator 18.0.0, SVG Export Plug-In . SVG Version: 6.00 Build 0)  -->
<!DOCTYPE svg PUBLIC "-//W3C//DTD SVG 1.1//EN" "http://www.w3.org/Graphics/SVG/1.1/DTD/svg11.dtd">
<svg version="1.1" id="Layer_1" xmlns="http://www.w3.org/2000/svg" xmlns:xlink="http://www.w3.org/1999/xlink" x="0px" y="0px"
	 viewBox="0 0 200 200" enable-background="new 0 0 200 200" xml:space="preserve">
<g>
	<path d="M99.9,177.2l-1.4-0.7C13.1,135.9,4.4,92.3,6.9,69.9c2.8-25.8,22.2-43.5,39.8-47.5c4.3-1,8.5-1.5,12.6-1.5
		C82,20.9,94.7,36,99.9,44.4c5.3-8.4,17.9-23.5,40.6-23.5c4.1,0,8.3,0.5,12.6,1.5c17.7,4.1,37,21.7,39.8,47.5
		c2.5,22.4-6.2,66-91.7,106.7L99.9,177.2z M59.3,27.4c-3.6,0-7.3,0.4-11.2,1.3c-15.4,3.5-32.3,19.1-34.8,41.9
		c-3.8,34.9,27.7,71.1,86.6,99.4c58.9-28.3,90.4-64.5,86.6-99.4c-2.5-22.8-19.4-38.4-34.9-41.9c-3.8-0.9-7.6-1.3-11.1-1.3
		c-26.6,0-37.5,24.8-37.6,25.1l-3,6.9l-3-6.9C96.5,51.4,85.8,27.4,59.3,27.4z"/>
</g>
</svg>
