<?xml version="1.0" encoding="utf-8"?>
<!-- Generator: Adobe Illustrator 18.0.0, SVG Export Plug-In . SVG Version: 6.00 Build 0)  -->
<!DOCTYPE svg PUBLIC "-//W3C//DTD SVG 1.1//EN" "http://www.w3.org/Graphics/SVG/1.1/DTD/svg11.dtd">
<svg version="1.1" id="Layer_1" xmlns="http://www.w3.org/2000/svg" xmlns:xlink="http://www.w3.org/1999/xlink" x="0px" y="0px"
	 viewBox="0 0 1190.6 841.9" enable-background="new 0 0 1190.6 841.9" xml:space="preserve">
<g>
	<path fill="#FFFFFF" d="M594.9,745.9L589,743C229.5,572.1,192.9,388.5,203.4,294.2c11.8-108.6,93.4-183.1,167.5-199.9
		c18.1-4.2,35.8-6.3,53-6.3c95.6,0,149,63.6,170.9,98.9C617.2,151.5,670.2,88,765.8,88c17.3,0,34.9,2.1,53,6.3
		c74.5,17.3,155.7,91.3,167.5,199.9c10.5,94.3-26.1,277.8-386,449.1L594.9,745.9z M424,115.3c-15.2,0-30.7,1.7-47.1,5.5
		c-64.8,14.7-136,80.4-146.5,176.4c-16,146.9,116.6,299.3,364.5,418.4c247.9-119.1,380.5-271.5,364.5-418.4
		c-10.5-96-81.7-161.6-146.9-176.4c-16-3.8-32-5.5-46.7-5.5c-112,0-157.9,104.4-158.3,105.7l-12.6,29l-12.6-29
		C580.5,216.4,535.5,115.3,424,115.3z"/>
</g>
</svg>
